<svg xmlns="http://www.w3.org/2000/svg" xmlns:xlink="http://www.w3.org/1999/xlink" viewBox="0 0 438.64 455.81"><defs><style>.cls-1{fill:url(#New_Gradient_Swatch_2);}.cls-2{fill:url(#New_Gradient_Swatch_2-2);}.cls-3{fill:url(#New_Gradient_Swatch_2-3);}.cls-4{fill:url(#New_Gradient_Swatch_2-4);}.cls-5{fill:url(#New_Gradient_Swatch_2-5);}.cls-6{fill:url(#New_Gradient_Swatch_2-6);}.cls-7{fill:url(#New_Gradient_Swatch_2-7);}.cls-8{fill:url(#New_Gradient_Swatch_2-8);}.cls-9{fill:url(#New_Gradient_Swatch_2-9);}.cls-10{fill:url(#New_Gradient_Swatch_2-10);}.cls-11{fill:url(#New_Gradient_Swatch_2-11);}.cls-12{fill:url(#New_Gradient_Swatch_2-12);}.cls-13{fill:url(#New_Gradient_Swatch_2-13);}.cls-14{fill:url(#New_Gradient_Swatch_2-14);}.cls-15{fill:url(#New_Gradient_Swatch_2-15);}.cls-16{fill:url(#New_Gradient_Swatch_2-16);}.cls-17{fill:url(#New_Gradient_Swatch_2-17);}.cls-18{fill:url(#New_Gradient_Swatch_2-18);}.cls-19{fill:url(#New_Gradient_Swatch_2-19);}.cls-20{fill:url(#New_Gradient_Swatch_2-20);}.cls-21{fill:url(#New_Gradient_Swatch_2-21);}.cls-22{fill:url(#New_Gradient_Swatch_2-22);}.cls-23{fill:url(#New_Gradient_Swatch_2-23);}.cls-24{fill:url(#New_Gradient_Swatch_2-24);}.cls-25{fill:url(#New_Gradient_Swatch_2-25);}.cls-26{fill:url(#New_Gradient_Swatch_2-26);}.cls-27{fill:url(#New_Gradient_Swatch_2-27);}.cls-28{fill:url(#New_Gradient_Swatch_2-28);}.cls-29{fill:url(#New_Gradient_Swatch_2-29);}.cls-30{fill:url(#New_Gradient_Swatch_2-30);}.cls-31{fill:url(#New_Gradient_Swatch_2-31);}.cls-32{fill:url(#New_Gradient_Swatch_2-32);}.cls-33{fill:url(#New_Gradient_Swatch_2-33);}.cls-34{fill:url(#New_Gradient_Swatch_2-34);}.cls-35{fill:url(#New_Gradient_Swatch_2-35);}.cls-36{fill:url(#New_Gradient_Swatch_2-36);}.cls-37{fill:url(#New_Gradient_Swatch_2-37);}.cls-38{fill:url(#New_Gradient_Swatch_2-38);}.cls-39{fill:url(#New_Gradient_Swatch_2-39);}.cls-40{fill:url(#New_Gradient_Swatch_2-40);}.cls-41{fill:url(#New_Gradient_Swatch_2-41);}.cls-42{fill:url(#New_Gradient_Swatch_2-42);}.cls-43{fill:url(#New_Gradient_Swatch_2-43);}.cls-44{fill:url(#New_Gradient_Swatch_2-44);}.cls-45{fill:url(#New_Gradient_Swatch_2-45);}.cls-46{fill:url(#New_Gradient_Swatch_2-46);}.cls-47{fill:url(#New_Gradient_Swatch_2-47);}.cls-48{fill:url(#New_Gradient_Swatch_2-48);}.cls-49{fill:url(#New_Gradient_Swatch_2-49);}.cls-50{fill:url(#New_Gradient_Swatch_2-50);}.cls-51{fill:url(#New_Gradient_Swatch_2-51);}.cls-52{fill:url(#New_Gradient_Swatch_2-52);}.cls-53{fill:url(#New_Gradient_Swatch_2-53);}.cls-54{fill:url(#New_Gradient_Swatch_2-54);}.cls-55{fill:url(#New_Gradient_Swatch_2-55);}.cls-56{fill:url(#New_Gradient_Swatch_2-56);}.cls-57{fill:url(#New_Gradient_Swatch_2-57);}.cls-58{fill:url(#New_Gradient_Swatch_2-58);}.cls-59{fill:url(#New_Gradient_Swatch_2-59);}.cls-60{fill:url(#linear-gradient);}.cls-61{fill:url(#linear-gradient-2);}.cls-62{fill:url(#linear-gradient-3);}.cls-63{fill:url(#linear-gradient-4);}.cls-64{fill:url(#linear-gradient-5);}.cls-65{fill:url(#linear-gradient-6);}.cls-66{fill:url(#linear-gradient-7);}.cls-67{fill:url(#linear-gradient-8);}.cls-68{fill:url(#linear-gradient-9);}.cls-69{fill:url(#linear-gradient-10);}.cls-70{fill:url(#linear-gradient-11);}.cls-71{fill:url(#linear-gradient-12);}.cls-72{fill:url(#linear-gradient-13);}.cls-73{fill:url(#linear-gradient-14);}.cls-74{fill:url(#linear-gradient-15);}.cls-75{fill:url(#linear-gradient-16);}.cls-76{fill:url(#linear-gradient-17);}.cls-77{fill:url(#linear-gradient-18);}.cls-78{fill:url(#linear-gradient-19);}.cls-79{fill:url(#linear-gradient-20);}.cls-80{fill:url(#linear-gradient-21);}.cls-81{fill:url(#linear-gradient-22);}.cls-82{fill:#232323;}</style><linearGradient id="New_Gradient_Swatch_2" x1="128.89" y1="275.7" x2="312.39" y2="77.2" gradientUnits="userSpaceOnUse"><stop offset="0.09" stop-color="#a1a1a1"/><stop offset="0.33" stop-color="#f9f9f9"/><stop offset="0.54" stop-color="#fff"/><stop offset="0.71" stop-color="#f9f9f9"/><stop offset="0.85" stop-color="#a1a1a1"/></linearGradient><linearGradient id="New_Gradient_Swatch_2-2" x1="130.24" y1="276.94" x2="313.74" y2="78.44" xlink:href="#New_Gradient_Swatch_2"/><linearGradient id="New_Gradient_Swatch_2-3" x1="97.91" y1="247.06" x2="281.41" y2="48.56" xlink:href="#New_Gradient_Swatch_2"/><linearGradient id="New_Gradient_Swatch_2-4" x1="169.37" y1="313.12" x2="352.87" y2="114.62" xlink:href="#New_Gradient_Swatch_2"/><linearGradient id="New_Gradient_Swatch_2-5" x1="166.65" y1="75.22" x2="251.65" y2="27.22" xlink:href="#New_Gradient_Swatch_2"/><linearGradient id="New_Gradient_Swatch_2-6" x1="178.96" y1="97.02" x2="263.96" y2="49.02" xlink:href="#New_Gradient_Swatch_2"/><linearGradient id="New_Gradient_Swatch_2-7" x1="237.22" y1="189.58" x2="288.56" y2="128.24" xlink:href="#New_Gradient_Swatch_2"/><linearGradient id="New_Gradient_Swatch_2-8" x1="215.7" y1="171.56" x2="267.03" y2="110.23" xlink:href="#New_Gradient_Swatch_2"/><linearGradient id="New_Gradient_Swatch_2-9" x1="227.01" y1="181.03" x2="278.35" y2="119.69" xlink:href="#New_Gradient_Swatch_2"/><linearGradient id="New_Gradient_Swatch_2-10" x1="170.44" y1="250.27" x2="209.1" y2="223.27" xlink:href="#New_Gradient_Swatch_2"/><linearGradient id="New_Gradient_Swatch_2-11" x1="165.2" y1="242.78" x2="203.87" y2="215.78" xlink:href="#New_Gradient_Swatch_2"/><linearGradient id="New_Gradient_Swatch_2-12" x1="-39.86" y1="221.08" x2="277.46" y2="-40.24" xlink:href="#New_Gradient_Swatch_2"/><linearGradient id="New_Gradient_Swatch_2-13" x1="-27.08" y1="236.62" x2="290.26" y2="-24.72" xlink:href="#New_Gradient_Swatch_2"/><linearGradient id="New_Gradient_Swatch_2-14" x1="-24.95" y1="239.18" x2="292.36" y2="-22.14" xlink:href="#New_Gradient_Swatch_2"/><linearGradient id="New_Gradient_Swatch_2-15" x1="-15.34" y1="250.87" x2="302" y2="-10.46" xlink:href="#New_Gradient_Swatch_2"/><linearGradient id="New_Gradient_Swatch_2-16" x1="-11.32" y1="255.75" x2="306.02" y2="-5.58" xlink:href="#New_Gradient_Swatch_2"/><linearGradient id="New_Gradient_Swatch_2-17" x1="-4.33" y1="264.25" x2="313.01" y2="2.91" xlink:href="#New_Gradient_Swatch_2"/><linearGradient id="New_Gradient_Swatch_2-18" x1="0.49" y1="270.1" x2="317.83" y2="8.76" xlink:href="#New_Gradient_Swatch_2"/><linearGradient id="New_Gradient_Swatch_2-19" x1="6.36" y1="277.21" x2="323.68" y2="15.89" xlink:href="#New_Gradient_Swatch_2"/><linearGradient id="New_Gradient_Swatch_2-20" x1="11.6" y1="283.58" x2="328.93" y2="22.25" xlink:href="#New_Gradient_Swatch_2"/><linearGradient id="New_Gradient_Swatch_2-21" x1="17.21" y1="290.4" x2="334.56" y2="29.06" xlink:href="#New_Gradient_Swatch_2"/><linearGradient id="New_Gradient_Swatch_2-22" x1="22.59" y1="296.92" x2="339.92" y2="35.59" xlink:href="#New_Gradient_Swatch_2"/><linearGradient id="New_Gradient_Swatch_2-23" x1="28.91" y1="304.6" x2="346.24" y2="43.27" xlink:href="#New_Gradient_Swatch_2"/><linearGradient id="New_Gradient_Swatch_2-24" x1="33.95" y1="310.73" x2="351.3" y2="49.38" xlink:href="#New_Gradient_Swatch_2"/><linearGradient id="New_Gradient_Swatch_2-25" x1="42.42" y1="321.01" x2="359.75" y2="59.68" xlink:href="#New_Gradient_Swatch_2"/><linearGradient id="New_Gradient_Swatch_2-26" x1="46.37" y1="325.81" x2="363.71" y2="64.47" xlink:href="#New_Gradient_Swatch_2"/><linearGradient id="New_Gradient_Swatch_2-27" x1="58.49" y1="340.51" x2="375.81" y2="79.19" xlink:href="#New_Gradient_Swatch_2"/><linearGradient id="New_Gradient_Swatch_2-28" x1="59.29" y1="341.49" x2="376.63" y2="80.15" xlink:href="#New_Gradient_Swatch_2"/><linearGradient id="New_Gradient_Swatch_2-29" x1="74.47" y1="359.93" x2="391.81" y2="98.59" xlink:href="#New_Gradient_Swatch_2"/><linearGradient id="New_Gradient_Swatch_2-30" x1="72.43" y1="357.44" x2="389.74" y2="96.13" xlink:href="#New_Gradient_Swatch_2"/><linearGradient id="New_Gradient_Swatch_2-31" x1="89.2" y1="377.81" x2="406.53" y2="116.47" xlink:href="#New_Gradient_Swatch_2"/><linearGradient id="New_Gradient_Swatch_2-32" x1="85.89" y1="373.8" x2="403.24" y2="112.45" xlink:href="#New_Gradient_Swatch_2"/><linearGradient id="New_Gradient_Swatch_2-33" x1="103.3" y1="394.93" x2="420.63" y2="133.6" xlink:href="#New_Gradient_Swatch_2"/><linearGradient id="New_Gradient_Swatch_2-34" x1="99.21" y1="389.96" x2="416.53" y2="128.63" xlink:href="#New_Gradient_Swatch_2"/><linearGradient id="New_Gradient_Swatch_2-35" x1="127.85" y1="424.74" x2="445.18" y2="163.41" xlink:href="#New_Gradient_Swatch_2"/><linearGradient id="New_Gradient_Swatch_2-36" x1="70.47" y1="355.06" x2="387.8" y2="93.73" xlink:href="#New_Gradient_Swatch_2"/><linearGradient id="New_Gradient_Swatch_2-37" x1="74.05" y1="359.38" x2="391.36" y2="98.06" xlink:href="#New_Gradient_Swatch_2"/><linearGradient id="New_Gradient_Swatch_2-38" x1="79.21" y1="365.68" x2="396.55" y2="104.35" xlink:href="#New_Gradient_Swatch_2"/><linearGradient id="New_Gradient_Swatch_2-39" x1="84.35" y1="371.92" x2="401.68" y2="110.59" xlink:href="#New_Gradient_Swatch_2"/><linearGradient id="New_Gradient_Swatch_2-40" x1="89.09" y1="377.66" x2="406.41" y2="116.33" xlink:href="#New_Gradient_Swatch_2"/><linearGradient id="New_Gradient_Swatch_2-41" x1="95.98" y1="386.04" x2="413.31" y2="124.71" xlink:href="#New_Gradient_Swatch_2"/><linearGradient id="New_Gradient_Swatch_2-42" x1="100.46" y1="391.49" x2="417.8" y2="130.15" xlink:href="#New_Gradient_Swatch_2"/><linearGradient id="New_Gradient_Swatch_2-43" x1="107.95" y1="400.6" x2="425.3" y2="139.26" xlink:href="#New_Gradient_Swatch_2"/><linearGradient id="New_Gradient_Swatch_2-44" x1="112.48" y1="406.07" x2="429.8" y2="144.74" xlink:href="#New_Gradient_Swatch_2"/><linearGradient id="New_Gradient_Swatch_2-45" x1="119.76" y1="414.93" x2="437.1" y2="153.59" xlink:href="#New_Gradient_Swatch_2"/><linearGradient id="New_Gradient_Swatch_2-46" x1="124.63" y1="420.85" x2="441.97" y2="159.51" xlink:href="#New_Gradient_Swatch_2"/><linearGradient id="New_Gradient_Swatch_2-47" x1="130.71" y1="428.22" x2="448.05" y2="166.89" xlink:href="#New_Gradient_Swatch_2"/><linearGradient id="New_Gradient_Swatch_2-48" x1="136.46" y1="435.21" x2="453.8" y2="173.87" xlink:href="#New_Gradient_Swatch_2"/><linearGradient id="New_Gradient_Swatch_2-49" x1="139.12" y1="438.46" x2="456.48" y2="177.11" xlink:href="#New_Gradient_Swatch_2"/><linearGradient id="New_Gradient_Swatch_2-50" x1="146.89" y1="447.87" x2="464.23" y2="186.53" xlink:href="#New_Gradient_Swatch_2"/><linearGradient id="New_Gradient_Swatch_2-51" x1="142.43" y1="442.44" x2="459.76" y2="181.11" xlink:href="#New_Gradient_Swatch_2"/><linearGradient id="New_Gradient_Swatch_2-52" x1="151.78" y1="453.81" x2="469.12" y2="192.47" xlink:href="#New_Gradient_Swatch_2"/><linearGradient id="New_Gradient_Swatch_2-53" x1="142.29" y1="442.27" x2="459.61" y2="180.94" xlink:href="#New_Gradient_Swatch_2"/><linearGradient id="New_Gradient_Swatch_2-54" x1="151.71" y1="453.72" x2="469.05" y2="192.39" xlink:href="#New_Gradient_Swatch_2"/><linearGradient id="New_Gradient_Swatch_2-55" x1="140.3" y1="439.86" x2="457.63" y2="178.53" xlink:href="#New_Gradient_Swatch_2"/><linearGradient id="New_Gradient_Swatch_2-56" x1="149.97" y1="451.61" x2="467.31" y2="190.27" xlink:href="#New_Gradient_Swatch_2"/><linearGradient id="New_Gradient_Swatch_2-57" x1="137.17" y1="436.06" x2="454.51" y2="174.73" xlink:href="#New_Gradient_Swatch_2"/><linearGradient id="New_Gradient_Swatch_2-58" x1="147.17" y1="448.2" x2="464.5" y2="186.87" xlink:href="#New_Gradient_Swatch_2"/><linearGradient id="New_Gradient_Swatch_2-59" x1="140.2" y1="439.84" x2="457.53" y2="178.51" xlink:href="#New_Gradient_Swatch_2"/><linearGradient id="linear-gradient" x1="345.12" y1="432.06" x2="386.86" y2="428.05" gradientUnits="userSpaceOnUse"><stop offset="0" stop-color="#85817e"/><stop offset="0.21" stop-color="#8f8983"/><stop offset="0.28" stop-color="#b3b3b3"/><stop offset="0.36" stop-color="#8b8681"/><stop offset="0.45" stop-color="#e7e7e7"/><stop offset="0.65" stop-color="#f4f4f4"/><stop offset="0.66" stop-color="#e7e6e6"/><stop offset="0.72" stop-color="#bdbbb9"/><stop offset="0.78" stop-color="#9e9b99"/><stop offset="0.82" stop-color="#8c8885"/><stop offset="0.85" stop-color="#85817e"/></linearGradient><linearGradient id="linear-gradient-2" x1="347.39" y1="449.29" x2="387.23" y2="445.46" gradientUnits="userSpaceOnUse"><stop offset="0.15" stop-color="#85817e"/><stop offset="0.18" stop-color="#8c8885"/><stop offset="0.22" stop-color="#9e9b99"/><stop offset="0.28" stop-color="#bdbbb9"/><stop offset="0.34" stop-color="#e7e6e6"/><stop offset="0.35" stop-color="#f4f4f4"/><stop offset="0.55" stop-color="#e7e7e7"/><stop offset="0.64" stop-color="#8b8681"/><stop offset="0.72" stop-color="#b3b3b3"/><stop offset="0.79" stop-color="#8f8983"/><stop offset="1" stop-color="#85817e"/></linearGradient><linearGradient id="linear-gradient-3" x1="221.06" y1="420.81" x2="362.69" y2="409.12" gradientUnits="userSpaceOnUse"><stop offset="0.15" stop-color="#f9f9f9"/><stop offset="0.3" stop-color="#b3b3b3"/><stop offset="0.51" stop-color="#e7e7e7"/><stop offset="0.74" stop-color="#8b8681"/><stop offset="0.76" stop-color="#8f8a85"/><stop offset="0.77" stop-color="#9a9591"/><stop offset="0.79" stop-color="#aca9a5"/><stop offset="0.81" stop-color="#c6c4c2"/><stop offset="0.83" stop-color="#e7e7e6"/><stop offset="0.83" stop-color="#f8f8f8"/><stop offset="0.88" stop-color="#b3b3b3"/><stop offset="0.92" stop-color="#8f8983"/><stop offset="0.95" stop-color="#85817e"/><stop offset="1" stop-color="#292725"/></linearGradient><linearGradient id="linear-gradient-4" x1="214.99" y1="425.75" x2="369.35" y2="434.09" xlink:href="#linear-gradient-3"/><linearGradient id="linear-gradient-5" x1="373.48" y1="417.49" x2="440.1" y2="405.27" gradientUnits="userSpaceOnUse"><stop offset="0" stop-color="#292725"/><stop offset="0.05" stop-color="#85817e"/><stop offset="0.11" stop-color="#8f8983"/><stop offset="0.15" stop-color="#b3b3b3"/><stop offset="0.2" stop-color="#f8f8f8"/><stop offset="0.22" stop-color="#e7e7e6"/><stop offset="0.27" stop-color="#c6c4c2"/><stop offset="0.33" stop-color="#aca9a5"/><stop offset="0.38" stop-color="#9a9591"/><stop offset="0.43" stop-color="#8f8a85"/><stop offset="0.48" stop-color="#8b8681"/><stop offset="0.7" stop-color="#e7e7e7"/><stop offset="0.8" stop-color="#b3b3b3"/><stop offset="0.88" stop-color="#f9f9f9"/><stop offset="1" stop-color="#85817e"/></linearGradient><linearGradient id="linear-gradient-6" x1="375.93" y1="422.25" x2="439.28" y2="401.65" xlink:href="#linear-gradient-5"/><linearGradient id="linear-gradient-7" x1="376.57" y1="423.73" x2="439.76" y2="403.18" xlink:href="#linear-gradient-2"/><linearGradient id="linear-gradient-8" x1="345.77" y1="435.18" x2="366.82" y2="433.52" gradientUnits="userSpaceOnUse"><stop offset="0" stop-color="#2f2f2f"/><stop offset="0.06" stop-color="#333"/><stop offset="0.11" stop-color="#3f3f3f"/><stop offset="0.17" stop-color="#545454"/><stop offset="0.23" stop-color="#707070"/><stop offset="0.25" stop-color="#7d7d7d"/><stop offset="0.79" stop-color="#3f3f3f"/><stop offset="0.93" stop-color="#2f2f2f"/></linearGradient><linearGradient id="linear-gradient-9" x1="346.85" y1="443.89" x2="371.08" y2="433.66" xlink:href="#linear-gradient-2"/><linearGradient id="linear-gradient-10" x1="389.88" y1="440.38" x2="379.48" y2="442.17" gradientUnits="userSpaceOnUse"><stop offset="0" stop-color="#2f2f2f"/><stop offset="0.24" stop-color="#606060"/><stop offset="0.37" stop-color="#7d7d7d"/><stop offset="0.55" stop-color="#6b6b6b"/><stop offset="0.9" stop-color="#3d3d3d"/><stop offset="1" stop-color="#2f2f2f"/></linearGradient><linearGradient id="linear-gradient-11" x1="387.61" y1="442.73" x2="379.55" y2="444.12" xlink:href="#linear-gradient-2"/><linearGradient id="linear-gradient-12" x1="-916.72" y1="432.06" x2="-874.98" y2="428.05" gradientTransform="matrix(-1, 0, 0, 1, -823.21, 0)" xlink:href="#linear-gradient"/><linearGradient id="linear-gradient-13" x1="-914.46" y1="449.29" x2="-874.62" y2="445.46" gradientTransform="matrix(-1, 0, 0, 1, -823.21, 0)" xlink:href="#linear-gradient-2"/><linearGradient id="linear-gradient-14" x1="-1040.79" y1="420.81" x2="-899.16" y2="409.12" gradientTransform="matrix(-1, 0, 0, 1, -823.21, 0)" xlink:href="#linear-gradient-3"/><linearGradient id="linear-gradient-15" x1="-1046.86" y1="425.75" x2="-892.49" y2="434.09" gradientTransform="matrix(-1, 0, 0, 1, -823.21, 0)" xlink:href="#linear-gradient-3"/><linearGradient id="linear-gradient-16" x1="-888.37" y1="417.48" x2="-821.75" y2="405.27" gradientTransform="matrix(-1, 0, 0, 1, -823.21, 0)" xlink:href="#linear-gradient-5"/><linearGradient id="linear-gradient-17" x1="-885.95" y1="422.26" x2="-822.56" y2="401.65" gradientTransform="matrix(-1, 0, 0, 1, -823.21, 0)" xlink:href="#linear-gradient-5"/><linearGradient id="linear-gradient-18" x1="-885.27" y1="423.73" x2="-822.1" y2="403.18" gradientTransform="matrix(-1, 0, 0, 1, -823.21, 0)" xlink:href="#linear-gradient-2"/><linearGradient id="linear-gradient-19" x1="-916.08" y1="435.18" x2="-895.03" y2="433.52" gradientTransform="matrix(-1, 0, 0, 1, -823.21, 0)" xlink:href="#linear-gradient-8"/><linearGradient id="linear-gradient-20" x1="-914.99" y1="443.89" x2="-890.77" y2="433.67" gradientTransform="matrix(-1, 0, 0, 1, -823.21, 0)" xlink:href="#linear-gradient-2"/><linearGradient id="linear-gradient-21" x1="-871.96" y1="440.38" x2="-882.36" y2="442.16" gradientTransform="matrix(-1, 0, 0, 1, -823.21, 0)" xlink:href="#linear-gradient-10"/><linearGradient id="linear-gradient-22" x1="-874.23" y1="442.73" x2="-882.3" y2="444.11" gradientTransform="matrix(-1, 0, 0, 1, -823.21, 0)" xlink:href="#linear-gradient-2"/></defs><g id="Layer_2" data-name="Layer 2"><g id="Layer_1-2" data-name="Layer 1"><path class="cls-1" d="M309.44,99V242.65c0,40.93-79.83,74.85-90.71,74.85S128,283.58,128,242.65V99l90.7-19.45Zm-9.31,143.65V106.52l-81.4-17.46-81.4,17.46V242.65c0,32,68.62,64.2,81.4,65.54C231.51,306.85,300.13,274.64,300.13,242.65Z"/><path class="cls-2" d="M218.73,304.59l-.32,0c-12.89-2.14-77.5-33.15-77.5-61.89V109.41l77.82-16.69.42.09,77.41,16.6V242.65c0,28.74-64.62,59.75-77.5,61.89ZM144.91,112.65v130c0,26,61.15,55.44,73.82,57.88,12.67-2.44,73.83-31.93,73.83-57.88v-130L218.73,96.81Z"/><polygon class="cls-3" points="148.49 193.16 218.73 193.16 218.73 100.47 148.49 115.54 148.49 193.16"/><path class="cls-4" d="M218.73,193.17V296.88C233.4,293.6,289,264.6,289,242.65V193.17Z"/><g id="crown"><path class="cls-5" d="M264,49.33a4.31,4.31,0,0,1-1.2-2,3,3,0,0,1-2,.88,16.75,16.75,0,0,0-.42-3.87,3,3,0,0,1,2.28.52,7.42,7.42,0,0,1,1.3-2.94A7.23,7.23,0,0,1,261.29,40c-.3.48-.63,1.18-1.16,1.4-1.16.48-1.82-1.94-2.58-2.88a3.16,3.16,0,0,1,2.55-.73,7.71,7.71,0,0,1-.17-3.24,8,8,0,0,1-3.21-.45,3.49,3.49,0,0,1-.62,2.07c-.71.88-2.53-1.1-3.48-1.62.42-1.05,1.08-1.36,2-1.86a6.14,6.14,0,0,1-1.48-2.83,6,6,0,0,1-3.06.83,3.47,3.47,0,0,1,0,2.72c-.59-.23-3.78-1-3.68-1.42a3.47,3.47,0,0,1,1.28-1.93,5.8,5.8,0,0,1-2.18-2.27,5.67,5.67,0,0,1-2.71,1.59,3.21,3.21,0,0,1,.72,2.35c-1.89-.28-3.87.16-5.11-1.31,0-.81,1.93-1.06,2.4-1.16a5.12,5.12,0,0,1-.51-3.06,5.13,5.13,0,0,1-3.1-.21c-.12.89-.08,1.69-.78,2.34-.42-.39-3.17-2.51-3-2.74a3.68,3.68,0,0,1,1.85-1.08,4.84,4.84,0,0,1-1-2.94,4.93,4.93,0,0,1-3.08.25,3.31,3.31,0,0,1-.37,2.26c-1.14-.72-2.32-1.39-3.52-2,.36-.8,1.05-1.05,1.78-1.47a5,5,0,0,1-1.36-2.78,5.29,5.29,0,0,1-3,.68,3.2,3.2,0,0,1,0,2.3,7.61,7.61,0,0,1-2.61-1.34c-1-.94,1-1.9,1.9-2.31,1.55-.7,6.82-.89,6.82,1.84,0-7.25-8.2-7.69-10.57-1.37.79-3.28,1.59-6.52.91-9.9C220.68,5.18,219,2.63,219,0c0,2.63-1.66,5.18-2.17,7.74-.67,3.38.13,6.62.91,9.9-2.36-6.33-10.56-5.88-10.56,1.37,0-2.73,5.27-2.54,6.81-1.84.44.2,2.69,1.53,2.23,2-.9.9-2.37,1.15-3.52,1.66-.44-.75-.15-1.5,0-2.3a5.37,5.37,0,0,1-3-.68,5.08,5.08,0,0,1-1.36,2.78c.72.42,1.42.66,1.77,1.46-1.2.62-2.38,1.28-3.52,2a3.46,3.46,0,0,1-.36-2.25,4.9,4.9,0,0,1-3.07-.25,5,5,0,0,1-1,2.94c.76.3,1.54.47,2,1.23A31.65,31.65,0,0,0,201,28.32c-.71-.63-.68-1.43-.79-2.32a5.18,5.18,0,0,1-3.09.21,5.13,5.13,0,0,1-.53,3.06c.48.1,2.36.34,2.4,1.15-1.25,1.48-3.19,1-5.09,1.32a3.19,3.19,0,0,1,.7-2.35,5.6,5.6,0,0,1-2.7-1.59,5.87,5.87,0,0,1-2.18,2.27c.42.41,1,.85,1.17,1.44.33,1.41-2.36,1.46-3.57,1.94a3.5,3.5,0,0,1,0-2.75,6,6,0,0,1-3.07-.83,6.14,6.14,0,0,1-1.48,2.83c.47.24,1.25.48,1.52.95.75,1.31.19,1.07-1,1.91s-1.23,1.46-2.18.3a3.43,3.43,0,0,1-.36-1.75,7.75,7.75,0,0,1-3.2.45,7.87,7.87,0,0,1-.19,3.24,3.31,3.31,0,0,1,2.6.76c-.39.48-1.85,3.17-2.16,3A3.49,3.49,0,0,1,176.16,40a7,7,0,0,1-2.61,1.88,7.4,7.4,0,0,1,1.29,2.94,3,3,0,0,1,2.33-.51,17.23,17.23,0,0,0-.42,3.86,3,3,0,0,1-2.09-.88,5.86,5.86,0,0,1-1.8,2.59,5.4,5.4,0,0,1,2.1,2.34c.61-.52,1.13-1.14,2-1.15a25.69,25.69,0,0,0,.8,3.88,3.06,3.06,0,0,1-2.3-.31,5.51,5.51,0,0,1-1.08,3A5.68,5.68,0,0,1,177,59.34c.49-.7.84-1.43,1.72-1.64a30.23,30.23,0,0,0,1.75,3.57,3.24,3.24,0,0,1-2.43.3,5.36,5.36,0,0,1-.37,3.11,5.29,5.29,0,0,1,2.93,1.09c.35-.83.55-1.62,1.41-2A40,40,0,0,0,184.45,67a3.35,3.35,0,0,1-2.39.79,4.78,4.78,0,0,1,.17,3.1,5,5,0,0,1,3,.59c.23-.91.32-1.71,1.13-2.27.71.76.41,1.86,1.37,2.43,1.21.72,2.91-.67,4-1.17a60,60,0,0,1,8.6-3.2,68.61,68.61,0,0,1,37-.1A60.13,60.13,0,0,1,246,70.26c1,.46,2.49,1.67,3.64,1.3s.81-1.62,1.49-2.38c.79.56.86,1.37,1.1,2.25a5,5,0,0,1,3-.59,4.91,4.91,0,0,1,.17-3.1,3.32,3.32,0,0,1-2.35-.76,40.16,40.16,0,0,0,2.45-3.22c.84.41,1,1.2,1.37,2a5.29,5.29,0,0,1,2.93-1.09,5.35,5.35,0,0,1-.36-3.11,3.26,3.26,0,0,1-2.4-.28,31.32,31.32,0,0,0,1.77-3.58c.85.22,1.19.94,1.66,1.63a5.83,5.83,0,0,1,2.63-1.73,5.61,5.61,0,0,1-1.07-3,3.14,3.14,0,0,1-2.27.32,25.74,25.74,0,0,0,.82-3.88c.82,0,1.33.64,1.92,1.14.37-.69,1.1-2.34,2.1-2.34l-.6-.56C263.68,49.07,264.29,49.61,264,49.33Zm-7.32-11.74c-.05-.14,0,0,0,0S256.68,37.57,256.68,37.59Zm-5.26-3.67c0,.2,0-.06,0,0Zm-65.37,0s.06.22,0,0Zm-5.26,3.63c.19.11,0,0,0,0ZM196.33,65.2c.73-1.64,1.17-1.72-.53-2.48.42-1.16,4-4.15,4.88-1.87-1.5-3.84-5.93-2.4-5.88,1.43a12.86,12.86,0,0,0-1.59-5.48c-.79-1.23-2.17-2.23-2.7-3.61.6,1.56.15,3.43.54,5.06a13.28,13.28,0,0,0,2.4,4.55c-2.55-2.87-6.79-.95-5.32,2.9-.88-2.3,3.75-2.49,4.88-1.9-.2.46-.4.91-.61,1.37l1.81.8c-.94.36-1.87.74-2.79,1.15-1.32.58-1.57,1.11-2.59,0A43.18,43.18,0,0,1,185.35,63a26.67,26.67,0,0,1-5.27-12.15c-1.4-10.4,6.84-15.37,16.13-16.2-4.39,9.24,1.79,21,7.1,28.59A67.54,67.54,0,0,0,196.33,65.2Zm24.75-3.65,2.6-2.9c.53-.59-1.23-1.92-1.7-2.44-.92-1,4.46-3,5.15-3,1.61,0,4.82.76,4.82,2.87,0-3-.89-6.83-4.4-7.26-3.71-.47-6.07,2.38-7.15,5.59.86-4.13,1.75-8.17.93-12.39-.58-3-2.32-6-2.32-9.12,0,3.09-1.72,6.11-2.31,9.12-.81,4.22.08,8.26.93,12.39-1.07-3.21-3.44-6.05-7.15-5.59-3.51.43-4.39,4.3-4.39,7.26,0-2.12,3.21-2.87,4.82-2.87.69,0,6.07,1.93,5.14,3-.47.52-2.22,1.85-1.69,2.44.87,1,1.74,1.93,2.6,2.9a72,72,0,0,0-10.26,1,55.45,55.45,0,0,1-4-6.11C200,51.54,197.59,45.63,198,39.9c.58-8.45,10.35-14,17.34-16.77a9.79,9.79,0,0,0-.69,4.11,9.59,9.59,0,0,0,3-3.3c1.44,1.45,1.26,1.55,2.74.08a9.61,9.61,0,0,0,2.86,3.22,9.82,9.82,0,0,0-.54-3.88c7,2.88,16.81,8.62,16.81,17.25,0,5.56-2.06,11-4.73,15.75a57.19,57.19,0,0,1-3.94,6.1A73.79,73.79,0,0,0,221.08,61.55Zm22.55,4.35,1.65-.73c-.21-.46-.41-.91-.61-1.37,1.12-.59,5.77-.4,4.87,1.9,1.5-3.85-2.76-5.75-5.32-2.9a13.21,13.21,0,0,0,2.41-4.55c.39-1.63-.06-3.5.53-5.06-.43,1.15-1.53,2-2.25,3a12,12,0,0,0-2,6.12c.05-3.84-4.4-5.26-5.89-1.43.9-2.28,4.45.7,4.88,1.87l-1.37.61c.25.58.51,1.15.77,1.73a66.59,66.59,0,0,0-7.07-1.94c5.28-7.53,11.38-19.28,7-28.48,7.42.65,15.85,4,16.37,12.51.49,8-4.18,15.13-9.51,20.63C246.63,67.1,245.13,66.47,243.63,65.9Z"/><path class="cls-6" d="M219,65.85a69,69,0,0,0-29.88,7.24L191.05,77c.54,1.11,1.28.13,2.26-.31q2.44-1.1,4.95-2a61.78,61.78,0,0,1,19.89-3.81,60.68,60.68,0,0,1,20,3.27c1.06.36,8,3.36,8.2,3,.68-1.41,1.35-2.83,2-4.25A69.19,69.19,0,0,0,219,65.85Z"/></g><path class="cls-7" d="M280.51,168c-.22-.17-.45-.31-.68-.48l.53-1.32-.19-.69-.37-.25.56-1.42-.19-.68c-.14-.11-.29-.2-.43-.3l.62-1.56-.19-.68a19.28,19.28,0,0,0-11.45-4.19c-5.7,0-11,3.12-14.22,9,.28-.28-5.23-8.82-12.76-8.82a17,17,0,0,0-10.32,4l-.16.19-3.89,7.53.73.6-.75,2,.77.57-.77,2,.28.21-.83,2.2,1.82,1.34c4.92-3.83,9.24-5.77,12.84-5.77,3.26,0,5.92,1.56,8.14,4.77v.32h3.68v-.2A12.19,12.19,0,0,1,263,171.6c4.3,0,9.06,2.07,13.06,5.7l1.88-.44,3-7.5Zm-50.28-.27.08-.06a15.64,15.64,0,0,1,8.24-2.39,11.92,11.92,0,0,1,7.59,2.53,14.09,14.09,0,0,0-6.58-1.59,19.05,19.05,0,0,0-9.75,2.91ZM229,171.8l.3-1a18.28,18.28,0,0,1,10.27-3.43,13.22,13.22,0,0,1,4.95.93,12.34,12.34,0,0,0-3.53-.51c-3.65,0-8.1,1.82-12.07,4.53Zm12.39-2.52c-3.61-.1-8.7,2.43-12.77,5.07l.08-.52c4.15-3.13,8.5-4.86,12.29-4.86a10.92,10.92,0,0,1,5.33,1.33A11.86,11.86,0,0,0,241.38,169.28Zm35,5.18c-4.15-3.33-8.94-5.22-13.36-5.22a15.15,15.15,0,0,0-3.52.45,14.79,14.79,0,0,1,4.75-.79,18.34,18.34,0,0,1,12.22,5l.14,0Zm.24-2a19.33,19.33,0,0,0-12.37-4.74,15.57,15.57,0,0,0-6.81,1.56,15,15,0,0,1,7.75-2.08,17,17,0,0,1,11.28,4.33l.58-.13Zm0-2.35A18.21,18.21,0,0,0,265.17,166a16.32,16.32,0,0,0-7.2,1.66,12.87,12.87,0,0,1,7.79-2.62,18.06,18.06,0,0,1,10.73,4l.61-.17Z"/><path class="cls-8" d="M258,127.27c0-5.07-3.1-7.46-2.56-10.39-.49,0-4.8,4-4.8,8.21,0,3.54,3.09,4.74,3.09,6.75C256.12,131.84,258,129.14,258,127.27Z"/><path class="cls-9" d="M259.09,141.94a21.31,21.31,0,0,1-1.3-5.08,2.59,2.59,0,0,1,.16-1.65c.21-.44,1-.68,1.15-1.15.34-1.12-.44-1.4-1.58-1.4a17.21,17.21,0,0,1-3.46.46,7,7,0,0,1-2.77-.46c-2.5-.17-1.44,1.68-1,3.53a11.55,11.55,0,0,1,.4,4.05,25.19,25.19,0,0,1-.69,2.62c-.22,1.12.64,2,.65,3.22,0,.76-1.5,2.79-.2,3.38a1,1,0,0,0,.78,0l0,15.8h6.33V144.42c.33.37.76.74,1.08.63C260.17,144.49,259.29,142.49,259.09,141.94Z"/><g id="Education_icon" data-name="Education icon"><path class="cls-10" d="M184.61,240.84h-.32l-13.47-5v8.5h0c0,1.92,6.17,3.48,13.79,3.48s13.8-1.56,13.8-3.48h0v-8.5l-13.47,5Z"/><polygon class="cls-11" points="184.61 219.32 158.01 229.22 158.01 229.22 158.01 240.96 159.72 239.13 161.44 240.96 161.44 230.5 170.82 233.99 184.61 239.13 198.41 233.99 211.22 229.22 184.61 219.32"/></g><path class="cls-12" d="M81.48,123.85c-2.8-4.72-5.35-9.54-8.31-14.17,10,3,20.38,10.73,17,22.61-3.23-2.16-6.7-5.06-8.7-8.44Z"/><path class="cls-13" d="M90.21,137.63c2.84,3.89,3.69,9,3.49,13.68-8.47-1.51-11.51-10.26-13-17.64.6-.6,3.29.1,3.94.28a9.91,9.91,0,0,1,5.53,3.68C91.13,138.9,89.31,136.35,90.21,137.63Z"/><path class="cls-14" d="M95.48,151a40.77,40.77,0,0,1-2.09-13.4,17.94,17.94,0,0,1,1.6-6.72c.39-.85,2.12-4.42,3.18-4.42.68,0,2.45,5.33,2.65,5.93a22.43,22.43,0,0,1,1.24,7.95C101.86,144.78,99.65,149.17,95.48,151Z"/><path class="cls-15" d="M93.52,160.12c2.1,4.37,2.27,9.87,1.45,14.58-9-2.65-10.43-13-10.15-21a11.82,11.82,0,0,1,8.7,6.41C94.94,163.06,90.5,154.23,93.52,160.12Z"/><path class="cls-16" d="M96.61,174.67c-.3,0-.39-6.23-.38-6.74a23.93,23.93,0,0,1,1.84-9.65,13.82,13.82,0,0,1,6.82-6.85c1.52,5.3,1.75,12.23-.89,17.19C102.8,170.87,99.57,174.67,96.61,174.67Z"/><path class="cls-17" d="M93.41,183.07a23.2,23.2,0,0,1,1.33,9.57c0,.34-.31,5.57-.62,5.57-9.38-3-10.2-14.42-9.05-22.63a12.54,12.54,0,0,1,8.34,7.49C96,189.38,92.15,179.92,93.41,183.07Z"/><path class="cls-18" d="M95.59,198.26c-.52-8.4,1.34-20.08,11-22.4.62,5.28.25,11.55-2.49,16.23C102.59,194.74,99,198.26,95.59,198.26Z"/><path class="cls-19" d="M91.87,206.1c1.87,4.83,1.68,10.59.79,15.63C82.73,219,82,206.55,83.45,198.15a13.2,13.2,0,0,1,8.42,7.95C94.39,212.62,89.33,199.58,91.87,206.1Z"/><path class="cls-20" d="M94,221.77a32,32,0,0,1,2.22-14c1.58-3.59,5.73-8.21,10.12-8.21.26,0-.3,6.57-.37,7.05a22.56,22.56,0,0,1-3,9.14A13.29,13.29,0,0,1,94,221.77Z"/><path class="cls-21" d="M90.15,229.24c2.1,4.89,2.24,10.84,1.74,16.07C81.14,243.26,80,230,81.25,221.26a13.86,13.86,0,0,1,8.9,8Z"/><path class="cls-22" d="M93,245.28c-.77-8.77,1.84-21.31,12.42-22.52C105.74,231.55,103.24,243.37,93,245.28Z"/><path class="cls-23" d="M89.56,252.64c2.63,5,3.45,10.71,4.11,16.23,0,.42-5-1.14-5.48-1.39a13.6,13.6,0,0,1-5.61-5.73c-2.63-4.94-3.28-11.09-2.87-16.6a14.69,14.69,0,0,1,9.85,7.49C90.42,254.27,87.76,249.37,89.56,252.64Z"/><path class="cls-24" d="M94.63,268.68c.26-.26-.76-5.08-.78-5.64a23.61,23.61,0,0,1,1.1-9,13.33,13.33,0,0,1,10.37-8.91c.94,0-.94,12.5-1.28,13.54A15.66,15.66,0,0,1,94.63,268.68Z"/><path class="cls-25" d="M92.39,276.29c.94,1.06,10.11,14.24,9.61,14.62-5.23,2.81-11.08,0-14.67-4-3.89-4.4-5.83-10.68-6.53-16.41,0-.35,4.93,1.05,5.3,1.21a18.09,18.09,0,0,1,6.29,4.62C95,279.22,91.11,274.83,92.39,276.29Z"/><path class="cls-26" d="M102.66,290.42c-6-7.65-6.34-21.28,4.74-24.38C109.45,274.48,109.38,284,102.66,290.42Z"/><path class="cls-27" d="M103.9,298c5.6,1.79,10.65,5.53,15.1,9.28-9,9-23.93-.48-28.9-9.52,4.13-1.87,9.64-1.14,13.8.24C107.68,299.23,103,297.71,103.9,298Z"/><path class="cls-28" d="M119.4,306.77a28.1,28.1,0,0,1-9.46-11.22c-2.23-5.15-.71-10.14,3.67-13.56.53,0,1.79,2.51,2.18,3.07a34.89,34.89,0,0,1,4.34,7.26C122,296.88,122.08,302.47,119.4,306.77Z"/><path class="cls-29" d="M121.67,313.79c5.91.72,11.82,3.66,16.75,6.9-7.65,10.18-21.89,3.46-29.57-3,3.29-3.27,8.33-4.43,12.82-3.94C125.68,314.28,117.64,313.35,121.67,313.79Z"/><path class="cls-30" d="M138.66,320.26c-8.49-5-18-15.51-11.12-25.57C135.1,300.36,143.58,310.28,138.66,320.26Z"/><path class="cls-31" d="M141.24,326.92c6.15,0,12.39,2.44,17.76,5.26-6.7,10.84-21.52,6-30.11.54,2.83-3.78,7.73-5.75,12.35-5.8C145.36,326.9,137.11,327,141.24,326.92Z"/><path class="cls-32" d="M159.14,331.88c-9-4.47-19.64-14.55-13.8-25.46C153.74,311.49,163.79,321.09,159.14,331.88Z"/><path class="cls-33" d="M161.69,338.33c6.24-.53,12.88,1.58,18.46,4.24-6.06,11.19-21.37,7.66-30.46,2.81a15.79,15.79,0,0,1,12-7.05C170,337.61,157.5,338.71,161.69,338.33Z"/><path class="cls-34" d="M180.22,342.42c-1,0-2.8-1.48-3.6-2a39.64,39.64,0,0,1-7.69-5.89c-4.64-4.67-7-11.53-4.14-17.82,0,.49,5.48,3.42,6,3.82a31.46,31.46,0,0,1,7.54,7.38,16,16,0,0,1,2.83,9.92C181.16,338.2,180.75,342.42,180.22,342.42Z"/><path class="cls-35" d="M182.49,348.78c5.83-.76,12,.93,17.38,3.14a.17.17,0,0,1,0-.12c-8.82-4.93-19.64-14.25-14.65-25.57,5.4,2.7,11,6.51,14.43,11.55a16,16,0,0,1,2.86,10.05,15.53,15.53,0,0,1-.59,3.39c.61.23,1.2.54,1.8.83,13.66,6.48,28.83,12.94,39.63,23.84,1.13,1.14,2.88,3.39.4,4.41-2.2.9-3.48-1.6-4.84-2.9-5.9-5.67-13.08-10-20.17-14-5.88-3.31-11.91-6.34-17.92-9.39-.21-.1-3.34,3.23-3.89,3.64a16.93,16.93,0,0,1-10,3,39.94,39.94,0,0,1-16.28-4,15.86,15.86,0,0,1,11.82-7.85Z"/><path class="cls-36" d="M350.34,119.37c3.2-5.3,9.5-8,15.13-9.7-5.21,8.14-8.68,17.07-17,22.62a16.43,16.43,0,0,1,1.88-12.92Z"/><path class="cls-37" d="M345.27,136.71c.5,4.67-.7,9.94-2.12,14.37-9.42-4.34-6.95-17.5-2.5-24.57.77,0,2.28,2.83,2.58,3.36a18.43,18.43,0,0,1,2,6.84C345.45,138.36,345.06,135.06,345.27,136.71Z"/><path class="cls-38" d="M345,151.26c-.28-7.67,3.29-19,13.09-17.49C356.63,141.12,353.35,149.86,345,151.26Z"/><path class="cls-39" d="M341.28,159.87c1.64,4.63,1.41,10,.75,14.84-9.71-2.51-10.47-15.38-8.12-23.31a14,14,0,0,1,7.37,8.47C342.4,163,339.24,153.54,341.28,159.87Z"/><path class="cls-40" d="M343.67,174.66c-1.32-7.92.53-19.73,10.3-20.89C354.2,161.77,352.64,172.09,343.67,174.66Z"/><path class="cls-41" d="M340.84,183.22c2.17,4.55,2.55,10.1,2.21,15.08-3.39,0-7-3.6-8.5-6.24-2.7-4.7-3-11-2.39-16.24a13.76,13.76,0,0,1,8.68,7.4C343.77,189.37,339.34,180.13,340.84,183.22Z"/><path class="cls-42" d="M344.52,198.17c0-4.08-1-7.81-.14-12,1-4.92,4.27-9.36,9.33-10.58.7,5.26.83,11.49-1.77,16.28a13.51,13.51,0,0,1-4.51,4.87C347.06,197,345,198.43,344.52,198.17Z"/><path class="cls-43" d="M341.83,206.43c2.51,4.53,3.09,10.27,2.84,15.38-10.19-1.58-12.63-13.64-12.22-22.25a13.53,13.53,0,0,1,9.38,6.87C345.23,212.56,338.45,200.3,341.83,206.43Z"/><path class="cls-44" d="M346,221.69c-1.45-8.44-.64-20.82,9.34-23.52C356.74,206.58,355.93,219,346,221.69Z"/><path class="cls-45" d="M343,229.51c2.59,4.64,3.09,10.59,2.6,15.8-10.18-2-12.63-13.8-12.31-22.59a13.38,13.38,0,0,1,9.71,6.79C344.74,232.63,339.49,223.26,343,229.51Z"/><path class="cls-46" d="M346.75,245.28c-.79-8.78.5-21.38,10.75-24C358.76,230.05,357.52,243.29,346.75,245.28Z"/><path class="cls-47" d="M343,252.42c2.4,4.75,2.35,11.23,1,16.28-9.74-3.45-11.12-14.61-10.59-23.54a13.14,13.14,0,0,1,9.61,7.26C343.86,254.06,341.44,249.13,343,252.42Z"/><path class="cls-48" d="M345,268.84c1.09-8.93,3.23-21.84,14-23.67C359.8,254.23,356.67,269.08,345,268.84Z"/><path class="cls-49" d="M339.87,274.58a16.69,16.69,0,0,1-.45,9.18c-.15.49-3.09,6.94-3.44,6.67-6.69-6.45-6.74-16-4.65-24.39a12.47,12.47,0,0,1,8.54,8.54C340.85,278.12,339.37,272.81,339.87,274.58Z"/><path class="cls-50" d="M336.66,290.89c4.89-7.83,10.29-20.45,21.26-20.4a33.62,33.62,0,0,1-6,15.73c-2.2,2.64-4.87,4.86-8.31,5.56C341.81,292.14,338.12,292.35,336.66,290.89Z"/><path class="cls-51" d="M329.58,293.05c-1.32,5.53-5.8,10.51-10.34,13.73a15.83,15.83,0,0,1-1.05-13.53,30.53,30.53,0,0,1,4.21-7.49c.45-.62,2.16-3.74,2.7-3.74,3.42,2.69,5.47,6.67,4.48,11C328.7,296.75,329.79,292.14,329.58,293.05Z"/><path class="cls-52" d="M319.66,307.28c7.23-6.07,19-14,28.93-9.45C343.58,306.85,328.67,316.35,319.66,307.28Z"/><path class="cls-53" d="M312.39,307.58C310.15,313,305,317.36,300,320.26c-4.88-10,3.6-19.9,11.17-25.55a13.72,13.72,0,0,1,1.25,12.87C310.9,311.22,313.92,304,312.39,307.58Z"/><path class="cls-54" d="M300.24,320.68c8.07-5.31,21.36-11.11,29.57-2.91C322.13,324.18,307.87,330.88,300.24,320.68Z"/><path class="cls-55" d="M293.22,319.79c-2.8,5.33-8.43,9.47-13.72,12.1-4.62-10.81,5.43-20.38,13.83-25.45a14.44,14.44,0,0,1-.11,13.35C291.34,323.37,295.12,316.23,293.22,319.79Z"/><path class="cls-56" d="M279.65,332.17c0-.61,5.32-2.43,5.83-2.63a37.41,37.41,0,0,1,10-2.53c5.24-.45,11,1.38,14.26,5.74C301.17,338.2,286.35,343,279.65,332.17Z"/><path class="cls-57" d="M273,330.47c-3.18,5.35-9,9.3-14.55,11.95a15.6,15.6,0,0,1,1.39-13.73,29.3,29.3,0,0,1,7.38-7.64c.67-.5,6.68-3.74,6.68-4.3a15.06,15.06,0,0,1-.9,13.72C268.72,337.64,275.1,326.9,273,330.47Z"/><path class="cls-58" d="M258.5,342.57c1.06,0,2.86-1.24,3.86-1.61a42.78,42.78,0,0,1,9.65-2.48c6.38-.8,13.43,1.1,16.95,6.92-5.94,3.16-13.68,5.75-20.44,4.35a15.35,15.35,0,0,1-7.52-4C260.72,345.5,258.71,342.57,258.5,342.57Z"/><path class="cls-59" d="M252.14,340.31c-3.1,5-8.35,8.66-13.42,11.49a.14.14,0,0,1,.06.12c9.37-3.86,23.48-6.06,29.2,4.71-5.72,2.67-12.69,4.72-19.05,3.86a16,16,0,0,1-8.26-3.66c-1.25-1.06-2-3.26-3.58-2.49-13.35,6.75-28.41,13.42-38.82,24.49-1.07,1.14-2.87,2.9-4.26.8s1.51-4.05,2.83-5.27c6-5.46,13.12-9.65,20.21-13.47,6.24-3.36,12.65-6.39,19-9.42,1-.49-.07-3.83,0-5.1a17.08,17.08,0,0,1,4.51-10.66,42.12,42.12,0,0,1,12.81-9.48,15.56,15.56,0,0,1-1.24,14.08Z"/><path class="cls-60" d="M387.79,452.29l.48-.49c-3.73,6-26.33,5.53-37.23-3.06-2.42-1.91-3-2.82-3.68-4.65-1.29-3.6-.53-7.67,2.11-8.64,8.63-3.16,11.79,10.57,16.93,6.83,1.08-.79,1.42-2.51,1.27-4.71a20,20,0,0,0-16-13.71,54.09,54.09,0,0,0-7.22-.61l-.48-5.93-.53-11.9c1,4.5,40.87,24.41,40.45,12.62,0,0,1.61,4.13,3.16,9.64.15.58.29,1.16.45,1.75-5.39.16-9.51,2.32-9.85,8.9C379.19,445.55,391.42,443.68,387.79,452.29Z"/><path class="cls-61" d="M388.22,451c-3.84,5.92-26.32,5.43-37.18-3.11-2.42-1.91-3-2.82-3.68-4.66a9.89,9.89,0,0,1-.59-3.25,10,10,0,0,0,.59,4.09c.65,1.83,1.26,2.74,3.68,4.65,10.9,8.59,33.5,9,37.23,3.06l-.48.49A8.66,8.66,0,0,0,388.22,451Z"/><path class="cls-62" d="M219.32,395.65c37.22,0,110.63-19.81,130.82-10.35,6.46,3,11.27,8.65,12.28,14.7l2.73,18.71S367.8,437,367.69,438a20.42,20.42,0,0,0-16.05-14.13c-28.68,0-102.34,12.73-132.32,12.73Z"/><path class="cls-63" d="M351.64,422.53c-28.68,0-102.34,12.73-132.32,12.73v1.33c30,0,103.64-12.73,132.32-12.73A20.42,20.42,0,0,1,367.69,438a17.12,17.12,0,0,0-.15-1.76A20.42,20.42,0,0,0,351.64,422.53Z"/><path class="cls-64" d="M438.64,427.54c-5.32,15.22-43.1,1.16-51.17,1.89-5.37.49-9.51,2.32-9.85,8.9,0,.17-2.3-16.88-2.3-16.88l-2.81-21.59c-2.23-13.82,17.31-12.44,30.52-8,14.11,4.7,28.62,8.62,33-2.54,0,0,4.11,12.71-8,24.53C430.61,421.94,438.64,427.54,438.64,427.54Z"/><path class="cls-65" d="M428.24,413.58c7.21-7.19,8.51-14.68,8.41-19.41-.1,4.8-1.65,11.91-8.64,18.76C428.08,413.16,428.17,413.36,428.24,413.58Z"/><path class="cls-66" d="M387.47,428.55c-5.37.49-9.51,2.31-9.85,8.89,0,.17,0,.35,0,.55l-2.28-17.44L372.51,399a12.81,12.81,0,0,1-.16-1.7,13,13,0,0,0,.16,2.59l2.81,21.59s2.29,17.05,2.3,16.88c.34-6.58,4.48-8.41,9.85-8.9,8.07-.73,45.85,13.33,51.17-1.89l-.3-.22C432.12,441.41,395.41,427.8,387.47,428.55Z"/><path class="cls-67" d="M366.4,442.28c-5.14,3.74-9.45-9-16.9-5.61-2.57,1.17-2.72,6-1.11,9.51,0,0-2.49-2.86-2.82-8.39l-1.08-13.68c2.55-.14,4.77-.61,7.15-.25a20,20,0,0,1,16,13.71C367.82,439.77,367.48,441.49,366.4,442.28Z"/><path class="cls-68" d="M367.67,437.57a20.1,20.1,0,0,0-3.13-6,19.58,19.58,0,0,1,2.75,5.48c.16,2.19-.18,3.93-1.27,4.71-5.14,3.73-9.45-9-16.9-5.62-2.56,1.17-2.7,6-1.12,9.5.24.34.39.52.39.52-1.61-3.48-1.46-8.34,1.11-9.51,7.45-3.37,11.76,9.35,16.9,5.61C367.48,441.49,367.82,439.77,367.67,437.57Z"/><path class="cls-69" d="M388.27,451.8l-.48.49c3.63-8.61-8.6-6.74-10.17-14,.34-6.58,4.46-8.74,9.85-8.9C389.47,437.07,391,446.65,388.27,451.8Z"/><path class="cls-70" d="M377.67,437.87c0,.14-.05.3-.05.46,1.34,6.17,10.47,5.7,10.82,10.83C388.79,443.43,379.19,444.11,377.67,437.87Z"/><path class="cls-71" d="M50.85,452.29l-.48-.49c3.73,6,26.33,5.53,37.22-3.06,2.44-1.91,3-2.82,3.7-4.65,1.28-3.6.52-7.67-2.13-8.64-8.61-3.16-11.78,10.57-16.93,6.83-1.07-.79-1.42-2.51-1.26-4.71a20,20,0,0,1,16-13.71,53.64,53.64,0,0,1,7.19-.61l.49-5.93.53-11.9c-1,4.5-40.85,24.41-40.44,12.62,0,0-1.61,4.13-3.15,9.64-.15.58-.31,1.16-.47,1.75,5.4.16,9.52,2.32,9.85,8.9C59.44,445.55,47.22,443.68,50.85,452.29Z"/><path class="cls-72" d="M50.42,451c3.84,5.92,26.32,5.43,37.17-3.11,2.44-1.91,3-2.82,3.7-4.66a10.71,10.71,0,0,0,.58-3.25,10.38,10.38,0,0,1-.58,4.09c-.66,1.83-1.26,2.74-3.7,4.65-10.89,8.59-33.49,9-37.22,3.06l.48.49A8.66,8.66,0,0,1,50.42,451Z"/><path class="cls-73" d="M219.32,395.65c-37.24,0-110.63-19.81-130.82-10.35C82,388.33,77.23,394,76.22,400l-2.74,18.71S70.83,437,70.94,438A20.45,20.45,0,0,1,87,423.86c28.66,0,102.33,12.73,132.31,12.73Z"/><path class="cls-74" d="M87,422.53c28.66,0,102.33,12.73,132.31,12.73v1.33c-30,0-103.65-12.73-132.31-12.73A20.45,20.45,0,0,0,70.94,438a13.32,13.32,0,0,1,.16-1.76A20.39,20.39,0,0,1,87,422.53Z"/><path class="cls-75" d="M0,427.54c5.31,15.22,43.1,1.16,51.16,1.89,5.38.49,9.52,2.32,9.85,8.9,0,.17,2.3-16.88,2.3-16.88l2.82-21.59c2.24-13.82-17.31-12.44-30.51-8-14.12,4.7-28.63,8.62-33-2.54,0,0-4.12,12.71,8,24.53C8,421.94,0,427.54,0,427.54Z"/><path class="cls-76" d="M10.39,413.58C3.18,406.39,1.9,398.9,2,394.17c.08,4.8,1.66,11.91,8.64,18.76C10.56,413.16,10.47,413.36,10.39,413.58Z"/><path class="cls-77" d="M51.16,428.55c5.38.49,9.52,2.31,9.85,8.89,0,.17,0,.35,0,.55l2.27-17.44L66.13,399a11.28,11.28,0,0,0,.15-1.7,12.26,12.26,0,0,1-.15,2.59l-2.82,21.59S61,438.5,61,438.33c-.33-6.58-4.47-8.41-9.85-8.9C43.1,428.7,5.31,442.76,0,427.54l.29-.22C6.52,441.41,43.23,427.8,51.16,428.55Z"/><path class="cls-78" d="M72.23,442.28c5.15,3.74,9.45-9,16.9-5.61,2.58,1.17,2.72,6,1.12,9.51,0,0,2.47-2.86,2.81-8.39l1.08-13.68c-2.55-.14-4.77-.61-7.13-.25a20,20,0,0,0-16,13.71C70.81,439.77,71.16,441.49,72.23,442.28Z"/><path class="cls-79" d="M71,437.57a20.07,20.07,0,0,1,3.12-6,20.13,20.13,0,0,0-2.75,5.48c-.15,2.19.19,3.93,1.26,4.71,5.15,3.73,9.46-9,16.91-5.62,2.57,1.17,2.71,6,1.12,9.5-.23.34-.38.52-.38.52,1.6-3.48,1.46-8.34-1.12-9.51-7.45-3.37-11.75,9.35-16.9,5.61C71.16,441.49,70.81,439.77,71,437.57Z"/><path class="cls-80" d="M50.37,451.8l.48.49c-3.63-8.61,8.59-6.74,10.16-14-.33-6.58-4.45-8.74-9.85-8.9C49.17,437.07,47.59,446.65,50.37,451.8Z"/><path class="cls-81" d="M61,437.87c0,.14,0,.3,0,.46-1.35,6.17-10.46,5.7-10.81,10.83C49.85,443.43,59.45,444.11,61,437.87Z"/><path class="cls-82" d="M196.15,142.21a13.93,13.93,0,0,0-.58-4.63c-.19-.46-.84-.83-1.94-1.1a11.6,11.6,0,0,0-2.57-.41c-.16,0-.24-.28-.26-.84a2.06,2.06,0,0,1,.14-1.07q6.19.41,7.3.41c1,0,2.29-.07,3.87-.2s2.57-.21,3-.21a2.66,2.66,0,0,1,.11.93c0,.66-.08,1-.23,1a11.19,11.19,0,0,0-2.49.44,3.78,3.78,0,0,0-2.2,1.18,13.69,13.69,0,0,0-.64,4.81v21.93q0,2.08.24,8.11a2.18,2.18,0,0,1-1.28.23c-.61,0-1.23-.44-1.85-1.33l-23-30.56v23.44a16,16,0,0,0,.46,4.74c.19.47.9.86,2.14,1.19a11.78,11.78,0,0,0,2.6.49q.18,0,.21.81a3,3,0,0,1-.09,1.1q-6.95-.35-7.24-.34c-1,0-2.32,0-3.84.14l-3,.2a1.41,1.41,0,0,1-.23-1c0-.62.07-.93.23-.93a10.91,10.91,0,0,0,2.63-.43,3.15,3.15,0,0,0,2.11-1.3,13.15,13.15,0,0,0,.58-4.87V141.46a9.53,9.53,0,0,0-.63-4.23c-.16-.27-.82-.52-2-.75a15.37,15.37,0,0,0-2.58-.35c-.15,0-.24-.29-.26-.87a1.58,1.58,0,0,1,.21-1.1c4,.2,6.34.29,6.88.29,1.28,0,3-.09,5.21-.29a59.59,59.59,0,0,0,4,6.17q2.91,4.08,8,10.76t6.95,9.24a18.17,18.17,0,0,0,.11-2.38Z"/><path class="cls-82" d="M245,213.59c1.69,0,4.69-.06,9-.2s7.53-.2,9.72-.2c.16,1.15.47,2.77.93,4.83s.71,3.19.75,3.39a1.8,1.8,0,0,1-1.21.29.8.8,0,0,1-.82-.41,7.26,7.26,0,0,0-7.4-5.15h-3c-2.86,0-4.33.25-4.4.75a24,24,0,0,0-.35,4.69v9.09c0,.23.85.34,2.55.34H254a14.34,14.34,0,0,0,4-.29c.43-.19.76-.86,1-2a13.55,13.55,0,0,1,.35-1.45c0-.27.34-.4.92-.4a1.53,1.53,0,0,1,1.1.29v10.94a1.74,1.74,0,0,1-1.1.23c-.5,0-.81-.16-.92-.47a18.06,18.06,0,0,0-.73-2.31,3.33,3.33,0,0,0-.4-.81l-.5-.35c-.5-.31-2.28-.46-5.32-.46-2.78,0-4.17.15-4.17.46v9a15.38,15.38,0,0,0,.52,4.69c.19.5,1.51.75,3.94.75h2.14a15.52,15.52,0,0,0,6.89-1.21,6.76,6.76,0,0,0,2.08-2,12.38,12.38,0,0,0,1.8-3.53c0-.23.3-.35.81-.35A2.5,2.5,0,0,1,268,242q-.18.53-.84,2.37c-.45,1.24-.78,2.17-1,2.81s-.48,1.42-.75,2.35a16.15,16.15,0,0,0-.52,2.25q-2.31,0-9.58-.17c-4.84-.12-8.25-.14-10.21-.06l-7.7.23c-.12-.11-.18-.42-.18-.92q0-1,.18-1a9.44,9.44,0,0,0,2.19-.37c1-.25,1.53-.55,1.69-.9a21.09,21.09,0,0,0,.4-5.27V221.46a18.35,18.35,0,0,0-.4-4.74c-.12-.43-.66-.77-1.63-1a9.07,9.07,0,0,0-2.31-.41c-.16,0-.23-.29-.23-.87a1.55,1.55,0,0,1,.23-1C239.88,213.52,242.44,213.59,245,213.59Z"/><path class="cls-82" d="M106.49,400.72a5.44,5.44,0,0,0-.09-1.81c-.06-.18-.3-.34-.71-.48a3.93,3.93,0,0,0-1-.23c-.06,0-.08-.12-.07-.34a.82.82,0,0,1,.08-.41c1.59.23,2.53.36,2.81.38s.89,0,1.51,0h1.15a1.22,1.22,0,0,1,0,.37c0,.25-.06.37-.12.37a4,4,0,0,0-1,.09,1.45,1.45,0,0,0-.89.4,5.29,5.29,0,0,0-.38,1.84l-.66,8.48q-.06.81-.15,3.15a.87.87,0,0,1-.5.05c-.24,0-.46-.21-.68-.57l-8-12.51-.7,9.07a6.74,6.74,0,0,0,0,1.85c.06.18.33.36.79.52a5.28,5.28,0,0,0,1,.27s.06.11,0,.32A1.44,1.44,0,0,1,99,412l-2.79-.35c-.41,0-.9-.05-1.5-.06H93.49a.62.62,0,0,1-.06-.39c0-.24.06-.35.12-.35a4.18,4.18,0,0,0,1-.09,1.23,1.23,0,0,0,.86-.44,5.34,5.34,0,0,0,.37-1.86l.67-8.78a3.76,3.76,0,0,0-.12-1.66c0-.1-.3-.22-.75-.35a6.86,6.86,0,0,0-1-.21c-.06,0-.08-.12-.07-.34s0-.36.11-.42c1.56.2,2.45.3,2.66.32.49,0,1.16.05,2,0a23.25,23.25,0,0,0,1.37,2.5c.68,1.12,1.6,2.58,2.78,4.41s2,3.08,2.42,3.78a6.72,6.72,0,0,0,.11-.92Z"/><path class="cls-82" d="M119.88,399l3.43,12.2c.16.63.33,1.19.5,1.71a1.06,1.06,0,0,0,.65.61,3.28,3.28,0,0,0,.83.29c.06,0,.08.15,0,.41a.83.83,0,0,1-.08.33l-2.8-.43-2.92-.18a.67.67,0,0,1-.05-.42c0-.22.07-.32.13-.32a3.06,3.06,0,0,0,.75-.05c.32-.06.52-.14.59-.25a.59.59,0,0,0,.1-.29,5.39,5.39,0,0,0-.26-1.58l-.56-2.17a.22.22,0,0,0-.15-.1c-.47-.08-1.11-.16-1.91-.25s-1.66-.16-2.55-.21c-.09,0-.14,0-.15.08l-1.07,2a6.31,6.31,0,0,0-.58,1.41.51.51,0,0,0,.2.47,2,2,0,0,0,.68.32,3.67,3.67,0,0,0,.67.19s.05.12,0,.32a1.49,1.49,0,0,1-.09.42l-1-.18c-.62-.11-1.13-.19-1.52-.23s-.84-.07-1.38-.09l-1.13-.05a.47.47,0,0,1,0-.34c0-.27,0-.4.08-.4a3,3,0,0,0,.88-.1,1.39,1.39,0,0,0,.8-.35,11.16,11.16,0,0,0,1-1.65l5.24-9.61a5.06,5.06,0,0,1,1-1.52.63.63,0,0,1,.4-.11A.38.38,0,0,1,119.88,399Zm-3.57,8c.51.1,1,.18,1.6.24s1.13.1,1.83.13l.06-.09-1.22-4.64-2.31,4.27C116.26,407,116.28,407,116.31,407Z"/><path class="cls-82" d="M132.65,400.46c1,.16,1.82.27,2.46.35s1.46.16,2.48.24l2.44.21a7.19,7.19,0,0,0,1.57,0v3.47a.86.86,0,0,1-.62.08c-.12,0-.19-.06-.21-.14a3.22,3.22,0,0,0-.63-1.76,2.4,2.4,0,0,0-1.55-.62c-1.38-.17-2.12-.13-2.21.12a8.16,8.16,0,0,0-.45,2.07l-1,8.05a7.24,7.24,0,0,0,0,2c0,.11.19.24.56.4a3.89,3.89,0,0,0,.76.26c.06,0,.08.14,0,.41a1,1,0,0,1-.08.35l-.85-.17-1-.19-.93-.13c-.4-.05-1-.09-1.67-.13l-1.31-.07a.55.55,0,0,1-.05-.37c0-.26.08-.39.14-.39a3.46,3.46,0,0,0,.85-.05c.4-.06.62-.15.68-.26a7,7,0,0,0,.4-1.83l1-8.08a6.05,6.05,0,0,0,.06-2.18q-.14-.4-2.07-.63a2.46,2.46,0,0,0-1.66.24,3.3,3.3,0,0,0-1,1.54c0,.08-.11.12-.24.1a.74.74,0,0,1-.56-.24l.83-3.34a7.44,7.44,0,0,0,1.51.4Z"/><path class="cls-82" d="M144.54,405a7.09,7.09,0,0,0,.06-1.9c0-.13-.24-.27-.59-.42a2.77,2.77,0,0,0-.78-.27c-.06,0-.07-.12,0-.34s.06-.37.1-.4l1.23.22c.74.14,1.32.23,1.72.28l2.87.22a1.56,1.56,0,0,1,0,.36c0,.26-.08.38-.14.37a3.43,3.43,0,0,0-.82.08c-.42.07-.65.15-.69.25a9.15,9.15,0,0,0-.42,1.94l-1,8.39a8.29,8.29,0,0,0,0,2c0,.11.2.24.57.4a3.92,3.92,0,0,0,.75.26c.06,0,.07.15,0,.43a.94.94,0,0,1-.08.31l-2.81-.48-.94-.1-1.09-.07-1-.06a.52.52,0,0,1,0-.33c0-.28.09-.42.15-.41a4.09,4.09,0,0,0,.85-.05c.39-.06.62-.15.68-.26a8.2,8.2,0,0,0,.41-1.85Z"/><path class="cls-82" d="M150.86,415.57a7.92,7.92,0,0,1,1.32-10.67,6.89,6.89,0,0,1,10.09,1.25,7.57,7.57,0,0,1,1.45,5.6,7.49,7.49,0,0,1-2.77,5.06,6.91,6.91,0,0,1-10.09-1.24ZM157,404.35a3.24,3.24,0,0,0-3.14,1.39,8.35,8.35,0,0,0-1.54,4.1,11,11,0,0,0,.06,3.25,6.25,6.25,0,0,0,1.23,2.81,3.64,3.64,0,0,0,2.49,1.43,3.27,3.27,0,0,0,3.15-1.41,8.29,8.29,0,0,0,1.56-4.1,11.21,11.21,0,0,0-.05-3.28,6,6,0,0,0-1.21-2.77A3.74,3.74,0,0,0,157,404.35Z"/><path class="cls-82" d="M177.56,409a5.32,5.32,0,0,0,0-1.81q-.08-.29-.69-.51a4.49,4.49,0,0,0-1-.28q-.09,0-.06-.33a.8.8,0,0,1,.1-.41c1.58.29,2.51.46,2.8.49s.88.08,1.5.1,1,0,1.15.06a1,1,0,0,1,0,.36c0,.25-.08.37-.13.37a4,4,0,0,0-1,.05,1.46,1.46,0,0,0-.91.36,5.31,5.31,0,0,0-.46,1.82l-1,8.45c-.07.54-.16,1.58-.29,3.13-.06.06-.23.07-.5,0s-.45-.23-.65-.6L169,407.45l-1.07,9a6.12,6.12,0,0,0,0,1.85c0,.19.31.37.77.56a5.45,5.45,0,0,0,1,.31s.06.11,0,.32a1,1,0,0,1-.08.42l-2.77-.47c-.4-.05-.9-.09-1.49-.12l-1.18-.06a.54.54,0,0,1,0-.39c0-.24.07-.35.13-.35a4.29,4.29,0,0,0,1,0,1.19,1.19,0,0,0,.87-.41,5,5,0,0,0,.45-1.85l1-8.74a3.74,3.74,0,0,0-.06-1.66c0-.11-.29-.23-.73-.38a6.63,6.63,0,0,0-1-.25c-.06,0-.08-.12-.06-.34s.06-.37.13-.42l2.64.43c.49.06,1.16.1,2,.12a22.27,22.27,0,0,0,1.27,2.56c.63,1.14,1.49,2.65,2.6,4.52s1.85,3.16,2.25,3.87a6.21,6.21,0,0,0,.15-.9Z"/><path class="cls-82" d="M190.46,407.32l3.46,12.2c.16.62.33,1.18.5,1.7a1.05,1.05,0,0,0,.66.61,3.25,3.25,0,0,0,.82.29c.06,0,.08.14,0,.41a.68.68,0,0,1-.08.33l-2.8-.43-2.92-.17a.61.61,0,0,1,0-.42c0-.22.06-.32.12-.32a3.06,3.06,0,0,0,.75,0c.32-.06.52-.14.59-.26a.56.56,0,0,0,.1-.28,5.4,5.4,0,0,0-.26-1.59l-.57-2.16c-.05-.06-.1-.1-.14-.1-.48-.08-1.11-.16-1.92-.25s-1.65-.15-2.55-.2c-.09,0-.14,0-.15.08l-1.06,2a6.31,6.31,0,0,0-.58,1.41.52.52,0,0,0,.2.48,2.31,2.31,0,0,0,.68.31,3.67,3.67,0,0,0,.67.19s0,.12,0,.32a1.49,1.49,0,0,1-.09.42l-1-.18c-.62-.11-1.13-.19-1.51-.23s-.85-.07-1.38-.09l-1.14,0a.47.47,0,0,1-.05-.34c0-.27.05-.4.08-.4a3,3,0,0,0,.88-.1,1.32,1.32,0,0,0,.8-.36,10.19,10.19,0,0,0,1-1.65l5.21-9.61a4.75,4.75,0,0,1,1-1.52.55.55,0,0,1,.39-.12A.38.38,0,0,1,190.46,407.32Zm-3.55,8a15.39,15.39,0,0,0,1.6.23c.52.06,1.13.1,1.84.13l.05-.09L189.17,411l-2.3,4.27C186.86,415.31,186.87,415.34,186.91,415.35Z"/><path class="cls-82" d="M202.37,411.66l-.67,8.42a7.33,7.33,0,0,0,.06,1.81c.06.2.56.33,1.5.41l.83.06a5.81,5.81,0,0,0,2.7-.26,2.55,2.55,0,0,0,.87-.72,4.56,4.56,0,0,0,.8-1.31c0-.08.13-.12.33-.11a1,1,0,0,1,.62.19l-.4.89c-.21.46-.37.82-.48,1s-.23.54-.36.89a4.5,4.5,0,0,0-.27.86l-3.7-.36c-1.87-.2-3.19-.31-3.95-.34l-3-.14a.66.66,0,0,1,0-.37c0-.25.05-.38.1-.38a3.26,3.26,0,0,0,.86-.07c.38-.07.61-.17.68-.3a8.38,8.38,0,0,0,.32-2l.67-8.47a6.91,6.91,0,0,0,0-1.91c0-.13-.25-.26-.6-.4a2.93,2.93,0,0,0-.79-.23c-.06,0-.09-.12-.07-.35a1,1,0,0,1,.08-.4l1.24.17c.75.1,1.32.17,1.73.2l2.87.1a1,1,0,0,1,0,.36c0,.25-.06.38-.12.37a3.66,3.66,0,0,0-.82.12c-.41.09-.64.18-.67.28A8.36,8.36,0,0,0,202.37,411.66Z"/><path class="cls-82" d="M218.3,409.44c.66,0,1.82-.05,3.48-.13s2.92-.13,3.77-.14c.07.45.2,1.07.39,1.87s.3,1.23.32,1.31a.8.8,0,0,1-.48.12.31.31,0,0,1-.31-.15,2.83,2.83,0,0,0-2.91-2l-1.16,0c-1.11,0-1.68.12-1.71.32a9,9,0,0,0-.1,1.82l0,3.53c0,.09.33.12,1,.12l1.17,0h.09a5.88,5.88,0,0,0,1.55-.14c.16-.08.28-.34.37-.79q.06-.35.12-.57c0-.1.13-.16.36-.16a.6.6,0,0,1,.43.11l.06,4.24a.7.7,0,0,1-.42.1q-.3,0-.36-.18a7.4,7.4,0,0,0-.3-.89,1.17,1.17,0,0,0-.16-.31l-.19-.14a6.47,6.47,0,0,0-2.07-.14c-1.08,0-1.62.08-1.62.2l.06,3.48a6,6,0,0,0,.23,1.82q.12.29,1.53.27l.83,0a6,6,0,0,0,2.67-.51,2.58,2.58,0,0,0,.79-.8,4.68,4.68,0,0,0,.68-1.38c0-.09.11-.13.31-.14a1,1,0,0,1,.63.13c0,.13-.15.44-.31.92s-.29.85-.38,1.1-.17.55-.27.91a5.47,5.47,0,0,0-.19.88c-.6,0-1.84,0-3.72,0s-3.2,0-4,0l-3,.14a.57.57,0,0,1-.07-.36c0-.26,0-.38.06-.38a4.41,4.41,0,0,0,.85-.16c.37-.11.59-.23.64-.36a7.92,7.92,0,0,0,.13-2.05l-.13-8.49a7.4,7.4,0,0,0-.19-1.84q-.08-.24-.63-.39a3.24,3.24,0,0,0-.9-.14c-.06,0-.1-.11-.1-.34a.68.68,0,0,1,.08-.4C216.3,409.44,217.3,409.45,218.3,409.44Z"/><path class="cls-82" d="M230.74,409l3.88-.31a7.48,7.48,0,0,1,5.87,1.69,7.12,7.12,0,0,1,2.46,4.89,7.34,7.34,0,0,1-7.16,8.22l-1.85.1-2,.12-3,.33c-.05,0-.08-.16-.1-.35s0-.39,0-.39a4.56,4.56,0,0,0,.84-.21c.36-.13.57-.27.62-.4a8.45,8.45,0,0,0,0-2.06l-.68-8.46a7.47,7.47,0,0,0-.31-1.82c-.06-.16-.28-.28-.66-.35a3.28,3.28,0,0,0-.91-.09q-.09,0-.12-.33a.71.71,0,0,1,.06-.41C228.75,409.09,229.74,409,230.74,409Zm1.47,2.77.71,8.77a3.64,3.64,0,0,0,.38,1.64c.26.22,1.18.27,2.76.14q4.55-.37,4-6.91a7.2,7.2,0,0,0-1.56-4.15,4,4,0,0,0-3.62-1.47h-.11c-1.44.12-2.23.3-2.39.56A2.33,2.33,0,0,0,232.21,411.72Z"/><path class="cls-82" d="M246.13,407.63c.27,0,1.22-.17,2.84-.44a1.58,1.58,0,0,1,.09.36c0,.25,0,.38-.05.38a4,4,0,0,0-.79.26c-.39.15-.58.29-.59.41a8,8,0,0,0,0,2l.55,5.13a6.13,6.13,0,0,0,1.39,3.57,3.27,3.27,0,0,0,2.91,1.08,3.6,3.6,0,0,0,2.63-1.43,5.52,5.52,0,0,0,.64-3.85l-.59-5.45a4.57,4.57,0,0,0-.42-1.76,1.48,1.48,0,0,0-.83-.31,3.42,3.42,0,0,0-1-.08c-.06,0-.1-.1-.13-.31a.74.74,0,0,1,0-.41c1.62-.06,2.56-.11,2.83-.14s.86-.12,1.48-.24,1-.18,1.14-.2a1.2,1.2,0,0,1,.08.35c0,.24,0,.36-.05.37a4,4,0,0,0-.94.27,1.45,1.45,0,0,0-.8.55,5.16,5.16,0,0,0-.05,1.88l.57,5.25a9.75,9.75,0,0,1-.1,3.05,4.87,4.87,0,0,1-1,2.11,5,5,0,0,1-1.67,1.25,6.94,6.94,0,0,1-2.23.58,5.54,5.54,0,0,1-4.39-1.16q-1.73-1.45-2.1-5.05l-.53-4.87a6.08,6.08,0,0,0-.38-1.85c-.07-.12-.29-.21-.66-.28a2.72,2.72,0,0,0-.82-.08c-.06,0-.1-.11-.13-.33a.89.89,0,0,1,0-.41C245,407.71,246,407.64,246.13,407.63Z"/><path class="cls-82" d="M273.67,415.2a12.14,12.14,0,0,1-.12,1.77c-.11,1-.22,1.52-.34,1.59a11.91,11.91,0,0,1-5.06,1.55,6.69,6.69,0,0,1-5.27-1.56,7.23,7.23,0,0,1-2.69-4.91,7.74,7.74,0,0,1,1.47-5.68,6.87,6.87,0,0,1,4.95-2.88,24.36,24.36,0,0,1,5.34,0,7.49,7.49,0,0,1,.3,1.45c.16.95.26,1.54.28,1.78s-.14.36-.49.4a.85.85,0,0,1-.33-.05,3.2,3.2,0,0,0-.42-.79,6.14,6.14,0,0,0-.81-.87,3.52,3.52,0,0,0-1.49-.72,5.88,5.88,0,0,0-2.16-.09,3.9,3.9,0,0,0-3.19,2.21,7.67,7.67,0,0,0-.7,4.47,8.18,8.18,0,0,0,1.94,4.6,4.49,4.49,0,0,0,4.1,1.49,4.12,4.12,0,0,0,3-1.62,3,3,0,0,0,.42-.9c.12-.37.2-.68.26-.93s.09-.37.12-.37C273.3,415,273.6,415.08,273.67,415.2Z"/><path class="cls-82" d="M281.65,403.4l6.12,11.1c.3.57.59,1.08.87,1.55a1.13,1.13,0,0,0,.78.45,3.24,3.24,0,0,0,.87.09c.06,0,.11.12.14.39a.89.89,0,0,1,0,.34l-2.83.21-2.88.49a.68.68,0,0,1-.14-.4c0-.21,0-.32.05-.33a3.07,3.07,0,0,0,.72-.22c.3-.13.47-.26.52-.39a.7.7,0,0,0,0-.29,5.23,5.23,0,0,0-.61-1.49l-1-2a.29.29,0,0,0-.17-.07c-.47,0-1.12.1-1.92.2s-1.64.22-2.53.38c-.09,0-.13,0-.12.1l-.6,2.18a7,7,0,0,0-.24,1.5.51.51,0,0,0,.3.42,2.33,2.33,0,0,0,.73.15,3.07,3.07,0,0,0,.7,0s.08.11.1.31a1.26,1.26,0,0,1,0,.43l-1.06.06c-.63,0-1.13.07-1.52.12s-.84.12-1.37.22l-1.11.22a.46.46,0,0,1-.13-.32c0-.27,0-.41,0-.41a3.06,3.06,0,0,0,.84-.3,1.36,1.36,0,0,0,.69-.52,10.13,10.13,0,0,0,.63-1.85l2.91-10.54a4.86,4.86,0,0,1,.63-1.71.62.62,0,0,1,.36-.2A.36.36,0,0,1,281.65,403.4ZM280,412c.52,0,1.06-.06,1.61-.13s1.13-.16,1.82-.29l0-.1-2.24-4.25-1.28,4.69C280,412,280,412,280,412Z"/><path class="cls-82" d="M294.23,401.88l2.47-.24c.64-.08,1.46-.2,2.47-.36l2.42-.38a7.11,7.11,0,0,0,1.51-.41l.84,3.36a.84.84,0,0,1-.59.23c-.12,0-.19,0-.23-.08a3.2,3.2,0,0,0-1-1.56,2.46,2.46,0,0,0-1.66-.24c-1.38.17-2.09.38-2.11.64a7.36,7.36,0,0,0,.05,2.12l1,8.05a7.84,7.84,0,0,0,.44,1.91c0,.11.24.19.64.25a3.82,3.82,0,0,0,.8.08c.06,0,.11.12.14.39a1.07,1.07,0,0,1,0,.36l-.87,0c-.38,0-.73,0-1.05.06s-.64,0-.93.09-1,.14-1.65.27l-1.3.25a.52.52,0,0,1-.13-.35c0-.27,0-.4,0-.41a3.59,3.59,0,0,0,.82-.26c.36-.15.56-.29.59-.41a6.75,6.75,0,0,0-.05-1.87l-1-8.08a6,6,0,0,0-.47-2.13q-.22-.36-2.16-.12a2.46,2.46,0,0,0-1.55.63,3.33,3.33,0,0,0-.65,1.74c0,.09-.07.14-.21.16a.76.76,0,0,1-.6-.11v-3.44a7.89,7.89,0,0,0,1.57,0Z"/><path class="cls-82" d="M306.86,403.45a6.66,6.66,0,0,0-.4-1.86q-.1-.16-.66-.27a3.05,3.05,0,0,0-.83-.07c-.05,0-.1-.1-.12-.33a1,1,0,0,1,0-.4l1.25-.08c.76-.05,1.34-.09,1.74-.14l2.84-.47a1.53,1.53,0,0,1,.11.35c0,.26,0,.39,0,.39a4.48,4.48,0,0,0-.78.27c-.39.17-.59.31-.61.41a8.62,8.62,0,0,0,.05,2l1,8.39a8.65,8.65,0,0,0,.44,2c0,.1.26.19.65.25a3.12,3.12,0,0,0,.79.08c.06,0,.11.13.14.41a1.11,1.11,0,0,1,0,.32l-2.85.2-.93.13-1.08.18-.94.17a.47.47,0,0,1-.13-.3c0-.28,0-.43.05-.44a3.39,3.39,0,0,0,.81-.25c.37-.15.57-.28.6-.41a8.21,8.21,0,0,0,0-1.89Z"/><path class="cls-82" d="M315.56,412.22a7.89,7.89,0,0,1-1.14-10.69,6.89,6.89,0,0,1,10.1-1.08,7.86,7.86,0,0,1,1.15,10.69,6.93,6.93,0,0,1-10.11,1.08ZM319,399.9a3.24,3.24,0,0,0-2.75,2.07,8.34,8.34,0,0,0-.56,4.34,11.06,11.06,0,0,0,.8,3.14,6.31,6.31,0,0,0,1.83,2.46,3.65,3.65,0,0,0,2.76.83,3.27,3.27,0,0,0,2.74-2.1,8.27,8.27,0,0,0,.59-4.34,11.5,11.5,0,0,0-.8-3.18,6,6,0,0,0-1.81-2.42A3.69,3.69,0,0,0,319,399.9Z"/><path class="cls-82" d="M340.38,400.08a5.42,5.42,0,0,0-.36-1.77c-.09-.17-.35-.3-.78-.37a5.24,5.24,0,0,0-1-.08c-.06,0-.11-.1-.13-.31a.82.82,0,0,1,0-.42c1.61,0,2.55,0,2.84-.06s.88-.1,1.49-.2,1-.16,1.14-.17a1,1,0,0,1,.07.36c0,.25,0,.38-.06.38a4.46,4.46,0,0,0-1,.25,1.42,1.42,0,0,0-.81.52,5,5,0,0,0-.1,1.88l.66,8.49c0,.54.15,1.58.33,3.13q-.08.09-.48.12c-.24,0-.49-.13-.76-.45l-9.84-11.13.72,9.07a5.82,5.82,0,0,0,.32,1.82c.09.17.37.3.86.39a5.2,5.2,0,0,0,1,.12c.05,0,.08.1.11.3a1.47,1.47,0,0,1,0,.43l-2.81.09c-.41,0-.9.09-1.49.17l-1.17.17a.64.64,0,0,1-.12-.38c0-.23,0-.35.07-.36a4.1,4.1,0,0,0,1-.25,1.18,1.18,0,0,0,.78-.57,5.24,5.24,0,0,0,.08-1.89l-.69-8.78A3.56,3.56,0,0,0,330,399c-.06-.1-.33-.17-.79-.23a7.31,7.31,0,0,0-1-.06c-.06,0-.1-.1-.12-.32a.62.62,0,0,1,0-.43l2.67-.1q.75-.06,2-.27a24,24,0,0,0,1.74,2.26c.84,1,2,2.3,3.43,3.93s2.44,2.74,3,3.36a8.74,8.74,0,0,0,0-.93Z"/></g></g></svg>